<svg width="400" height="400" viewBox="0 0 400 400" fill="none" xmlns="http://www.w3.org/2000/svg">
<rect width="400" height="400" rx="100" fill="#FF0000"/>
<path d="M243.103 85C228.484 85 213.866 91.0193 202.687 101.912L123.003 179.876C92.3325 210.546 92.3325 260.134 123.003 291.091C153.673 321.761 203.26 321.761 234.217 291.091L270.047 255.262L250.269 235.484L217.019 267.874L214.439 271.6C194.661 291.378 162.558 291.378 142.78 271.6C123.289 252.109 123.862 220.579 142.78 200.801L222.465 121.976C233.644 110.797 252.275 110.797 263.741 121.976C274.919 133.155 274.346 150.926 263.741 162.392L192.082 233.191C189.215 236.057 184.343 236.057 181.19 233.191C178.323 230.324 178.323 225.451 181.19 222.298L182.909 221.439L208.993 194.495L189.215 174.717L161.412 202.521C147.653 216.279 147.653 238.923 161.412 252.682C175.17 266.44 197.814 266.727 211.573 252.682L283.232 182.743C305.589 160.385 305.589 124.269 283.232 102.198C272.053 91.0193 257.721 85.2866 242.816 85.2866L243.103 85Z" fill="white"/>
</svg>
