<svg xmlns="http://www.w3.org/2000/svg" width="815" height="238" fill="none" viewBox="0 0 815 238"><path fill="#5C6572" d="M157.696 124.631H103.576C103.292 121.293 102.12 118.416 100.061 116.001C98.0011 113.587 95.3377 111.74 92.0707 110.462C88.8746 109.112 85.3235 108.438 81.4173 108.438C76.3746 108.438 72.0423 109.361 68.4201 111.207C64.7979 113.054 63.0224 115.682 63.0934 119.091C63.0224 121.506 64.0522 123.743 66.1829 125.803C68.3846 127.862 72.6104 129.46 78.8604 130.597L112.099 136.562C128.86 139.616 141.325 144.766 149.493 152.01C157.731 159.183 161.886 168.807 161.957 180.881C161.886 192.528 158.406 202.649 151.517 211.243C144.699 219.766 135.359 226.371 123.498 231.058C111.708 235.675 98.2496 237.983 83.1218 237.983C58.1218 237.983 38.555 232.869 24.4215 222.642C10.359 212.415 2.51101 198.92 0.877486 182.159H59.2582C60.0394 187.344 62.5962 191.357 66.9286 194.197C71.332 196.967 76.8718 198.352 83.5479 198.352C88.9457 198.352 93.3846 197.429 96.8647 195.582C100.416 193.736 102.227 191.108 102.298 187.699C102.227 184.574 100.664 182.088 97.6104 180.241C94.6275 178.395 89.94 176.903 83.5479 175.767L54.5707 170.653C37.8803 167.741 25.3803 162.202 17.0707 154.034C8.76101 145.866 4.64169 135.355 4.71271 122.5C4.64169 111.136 7.62465 101.513 13.6616 93.6293C19.7695 85.6747 28.4698 79.6378 39.7624 75.5185C51.1261 71.3281 64.5849 69.233 80.1389 69.233C103.789 69.233 122.433 74.1335 136.069 83.9347C149.777 93.7358 156.985 107.301 157.696 124.631ZM248.324 237.983C230.569 237.983 215.37 234.467 202.728 227.436C190.086 220.334 180.391 210.462 173.644 197.82C166.897 185.107 163.523 170.369 163.523 153.608C163.523 136.847 166.897 122.145 173.644 109.503C180.391 96.7898 190.086 86.9176 202.728 79.8864C215.37 72.7841 230.569 69.233 248.324 69.233C264.375 69.233 278.26 72.1449 289.979 77.9688C301.769 83.7216 310.895 91.8892 317.358 102.472C323.821 112.983 327.088 125.341 327.159 139.545H272.614C271.833 130.952 269.347 124.418 265.157 119.943C261.037 115.398 255.711 113.125 249.176 113.125C244.063 113.125 239.588 114.616 235.753 117.599C231.918 120.511 228.935 124.95 226.804 130.916C224.674 136.811 223.608 144.233 223.608 153.182C223.608 162.131 224.674 169.588 226.804 175.554C228.935 181.449 231.918 185.888 235.753 188.871C239.588 191.783 244.063 193.239 249.176 193.239C253.509 193.239 257.344 192.244 260.682 190.256C264.02 188.196 266.719 185.213 268.779 181.307C270.909 177.33 272.188 172.5 272.614 166.818H327.159C326.946 181.236 323.644 193.807 317.252 204.531C310.86 215.185 301.804 223.423 290.086 229.247C278.438 235.071 264.517 237.983 248.324 237.983ZM336.423 235V71.3636H393.525V102.472H395.229C398.212 90.9659 402.935 82.5497 409.398 77.223C415.933 71.8963 423.567 69.233 432.303 69.233C434.86 69.233 437.381 69.446 439.867 69.8722C442.424 70.2273 444.874 70.7599 447.218 71.4702V121.648C444.306 120.653 440.719 119.908 436.458 119.411C432.197 118.913 428.539 118.665 425.485 118.665C419.732 118.665 414.548 119.979 409.931 122.607C405.386 125.163 401.799 128.786 399.171 133.473C396.543 138.089 395.229 143.523 395.229 149.773V235H336.423ZM451.501 235V71.3636H510.308V235H451.501ZM480.904 54.3182C472.95 54.3182 466.131 51.6903 460.45 46.4347C454.768 41.179 451.927 34.858 451.927 27.4716C451.927 20.0852 454.768 13.7642 460.45 8.50851C466.131 3.25284 472.95 0.625 480.904 0.625C488.93 0.625 495.748 3.25284 501.359 8.50851C507.04 13.7642 509.881 20.0852 509.881 27.4716C509.881 34.858 507.04 41.179 501.359 46.4347C495.748 51.6903 488.93 54.3182 480.904 54.3182ZM524.418 235V16.8182H583.225V99.9148H584.077C586.208 94.375 589.333 89.2969 593.452 84.6804C597.571 79.9929 602.685 76.2642 608.793 73.4943C614.901 70.6534 622.003 69.233 630.1 69.233C640.895 69.233 651.158 72.1094 660.888 77.8622C670.689 83.6151 678.644 92.6704 684.752 105.028C690.931 117.386 694.02 133.437 694.02 153.182C694.02 172.074 691.073 187.734 685.178 200.163C679.354 212.592 671.542 221.861 661.74 227.969C652.01 234.077 641.321 237.131 629.674 237.131C622.003 237.131 615.15 235.888 609.113 233.402C603.147 230.845 598.033 227.401 593.772 223.068C589.581 218.665 586.35 213.693 584.077 208.153H582.799V235H524.418ZM581.946 153.182C581.946 161.136 582.976 168.026 585.036 173.849C587.167 179.602 590.15 184.077 593.985 187.273C597.891 190.398 602.543 191.96 607.941 191.96C613.338 191.96 617.919 190.433 621.684 187.379C625.519 184.254 628.431 179.815 630.419 174.062C632.479 168.239 633.509 161.278 633.509 153.182C633.509 145.085 632.479 138.161 630.419 132.408C628.431 126.584 625.519 122.145 621.684 119.091C617.919 115.966 613.338 114.403 607.941 114.403C602.543 114.403 597.891 115.966 593.985 119.091C590.15 122.145 587.167 126.584 585.036 132.408C582.976 138.161 581.946 145.085 581.946 153.182ZM703.63 235V71.3636H760.732V102.472H762.436C765.419 90.9659 770.142 82.5497 776.605 77.223C783.14 71.8963 790.775 69.233 799.51 69.233C802.067 69.233 804.588 69.446 807.074 69.8722C809.631 70.2273 812.081 70.7599 814.425 71.4702V121.648C811.513 120.653 807.926 119.908 803.665 119.411C799.404 118.913 795.746 118.665 792.692 118.665C786.939 118.665 781.755 119.979 777.138 122.607C772.593 125.163 769.006 128.786 766.378 133.473C763.75 138.089 762.436 143.523 762.436 149.773V235H703.63Z"/></svg>